<svg t="1747707755808" class="icon" viewBox="0 0 1024 1024" version="1.1" xmlns="http://www.w3.org/2000/svg" p-id="6412" width="200" height="200"><path d="M395.4 330m-92 0a92 92 0 1 0 184 0 92 92 0 1 0-184 0Z" fill="#DC3333" p-id="6413"></path><path d="M614.8 489.2m-51.4 0a51.4 51.4 0 1 0 102.8 0 51.4 51.4 0 1 0-102.8 0Z" fill="#DC3333" p-id="6414"></path><path d="M631 418.4c-32 0-58 26-58 58s26 58 58 58 58-26 58-58c0-31.8-26.2-58-58-58z m0 86c-15.4 0-28-12.6-28-28s12.6-28 28-28 28 12.6 28 28c-0.2 15.6-12.6 28-28 28zM456.2 273.2c-8.2 1.6-13.4 9.6-11.6 17.8 1.2 5.4 1.6 10.8 1.6 16.4 0 44-35.8 79.6-79.6 79.6-44 0-79.6-35.8-79.6-79.6s35.8-79.6 79.6-79.6c18.2 0 35.4 6 49.6 17.4 6.4 5.2 16 4 21-2.4s4-16-2.4-21c-19.2-15.4-43.6-23.8-68.2-23.8-60.4 0-109.6 49.2-109.6 109.6s49.2 109.6 109.6 109.6 109.6-49.2 109.6-109.6c0-7.6-0.8-15.2-2.4-22.6-1.6-8.4-9.4-13.6-17.6-11.8zM75.8 985H15c-8.2 0-15 6.8-15 15s6.8 15 15 15h60.8c8.2 0 15-6.8 15-15s-6.8-15-15-15zM230.4 985H169.6c-8.2 0-15 6.8-15 15s6.8 15 15 15h60.8c8.2 0 15-6.8 15-15s-6.6-15-15-15z" p-id="6415"></path><path d="M955.6 960.4c2.8 3.4 7 5.2 11.4 5.2h36.4c5.2 0 10.2-2.8 12.8-7.2s2.8-10 0.4-14.8l-61-116c-1.6-3-2-6.4-1.2-9.6l27-108.8v-0.2c0-0.4 0.2-0.6 0.2-1v-0.4-0.2-0.8-0.4-29.2c0-8.2-6.8-15-15-15s-15 6.8-15 15v6.2l-65.2-26.8 1.4-85.4 8.6 5.2c7 4.4 16.4 2 20.6-5 4.4-7 2-16.4-5-20.6l-31-18.8c-0.2 0-0.2-0.2-0.4-0.2l-98-59.6c-15.8-9.6-25.6-26.2-27.2-44l149.6 81.2c0.8 0.4 1.6 1 2.4 1.4l2.6 1.2 21.4 11.6c12.6 6.8 20.4 20 20.4 34.4v58.8c0 8.2 6.8 15 15 15s15-6.8 15-15V558c0-16.4-5.8-31.8-15.8-44 6-4.2 10.8-9.8 14.4-16.4l16-31.2c5.4-10.6 6.4-22.8 2.8-34.2-3.6-11.4-11.6-20.8-22.2-26.2l-12.4-6.4c-22-11.2-49.2-2.6-60.4 19.4l-16 31.2c-2.2 4.2-3.6 8.6-4.4 13.2l-118.8-64.4c2.4-7.8 0.4-16.8-5.8-22.8l-26.4-26.4c-8.6-8.6-22.4-9-31.4-1.2l-22.6 19.4c-1-0.4-2-1-3.2-1.4l-1.8-30c-0.8-12.2-10.8-21.8-23-21.8h-37.4c-8.6 0-16 4.8-20 11.8V282c0-13.8-10.8-25.6-24.6-26.6l-29.4-2.2c-2.8-9.2-6.4-18-10.8-26.6l20-22.4c9.4-10.6 8.8-26.6-1.2-36.6l-38.2-38.2c-9.8-9.8-25.8-10.4-36.4-1.4L450 147c-8.4-4.4-17.4-8.2-26.4-11.2l-1.8-30c-0.8-14-12.6-25.2-26.6-25.2h-54c-13.8 0-25.6 10.8-26.6 24.6l-2.2 29.4c-10 3.2-19.8 7.2-29 12l-22.4-19.2c-10.6-9-26.4-8.4-36.4 1.4L186.2 167.4c-10 10-10.4 26-1.2 36.6l20 22.4c-4.4 8.6-8 17.4-10.8 26.6l-29.6 2.2c-13.8 1-24.6 12.8-24.6 26.6v54c0 14.2 11 25.8 25.2 26.6l30 1.8c3 9 6.8 17.8 11.2 26.4l-19.2 22.4c-9 10.6-8.4 26.4 1.4 36.4l38.2 38.2c10 10 26 10.4 36.6 1.2l22.4-20c8.6 4.2 17.4 7.8 26.6 10.8l2.2 29.2-77.4 8.2c-1 0.2-2.2-0.2-3.2-0.6l-74-47.4c7.4-7.2 12.4-16.8 13.4-28l3.4-35c1.2-12-2.4-23.6-10.2-32.8-7.6-9.2-18.4-15-30.4-16l-13.8-1.4c-12-1.2-23.6 2.4-32.8 10.2-9.2 7.6-15 18.4-16 30.4l-3.4 35c-1 11 2 21.8 8.4 30.6-2 1.8-4 3.6-5.8 5.6l-7 7.8c-12.8 14.4-19.8 33-20 52.2l-1 118.4L6.2 946.6c-0.6 4.2 0.8 8.6 3.6 11.8 2.8 3.2 7 5 11.2 5H60c6.4 0 12.2-4 14.2-10.2l96.4-279.6 89.8 93.4c5 5 6 13 2.2 19-0.4 0.6-0.8 1.4-1 2l-59.8 145.4H194l26.4-117.6c2.8-8.2 1.4-17-3.6-24-0.4-0.6-0.8-1-1.2-1.4L188 761c-5.6-6-15.2-6.4-21.2-0.6-6 5.6-6.4 15.2-0.6 21.2l25.4 26.8-30.8 136.8c-1 4.4 0 9.2 3 12.6 2.8 3.6 7.2 5.6 11.8 5.6h36.6c6 0 11.6-3.6 13.8-9.2l63.2-153.6c10-17.8 7.2-40-7-54.4l-102.4-106.4 0.8-60.8 30.4 17c6.6 3.6 14 5 21.4 4.2l76.6-9.4c31-3.8 55.4-27.2 61.4-56.6h25.2c14.2 0 25.8-11 26.6-25.2l1.8-30c8.2-2.8 16.2-6 23.8-9.8l21.8 19.2v8.2c0 12.2 9.6 22.4 21.8 23l30 1.8c0.4 1 0.8 2.2 1.4 3.2l-19.4 22.6c-7.8 9.2-7.2 23 1.2 31.4l26.6 26.6c8.6 8.6 22.6 9 31.6 1l22.4-19.8c1 0.4 2.2 0.8 3.2 1.2l2.2 29.6c0.8 12 11 21.4 23 21.4h37.4c12.2 0 22.4-9.6 23-21.8l1.8-30c0.4-0.2 1-0.4 1.4-0.6l22.4 19.8c9.2 8 23 7.6 31.8-1l26.4-26.4c8.4-8.4 9-22.2 1.2-31.4l-19.4-22.6c0.4-1 1-2 1.4-3.2l30-1.8c7-0.4 13-4 17-9.2l70.4 42.8-1.6 108.6-84.2 117.2c-6.6 9.2-9.6 20.4-8.4 31.8l14.8 141.8c0.8 7.6 7.2 13.4 15 13.4h34c7.8 0 14.4-6 15-13.8l9-113.2c0.2-1.2 0.4-2.4 0.8-3.6 2 6 5.2 11.6 9.4 16.4l93.4 108.6z m-41.8-485c-1.2-3.8-0.8-7.8 1-11.4l16-31.2c3.8-7.2 12.8-10.2 20-6.4l12.4 6.4c3.6 1.8 6.2 4.8 7.4 8.6s0.8 7.8-1 11.4l-16 31.2c-1.8 3.6-4.8 6.2-8.6 7.4-3.8 1.2-7.8 0.8-11.4-1l-9.4-4.8-4.4-2.4c-2.8-2-4.8-4.6-6-7.8z m-324.6-125.6l-1.2 16c-1.6 0.6-3.2 1.4-5 2l-7.8-6.8c5.8-2 10.8-6 14-11.2zM100.2 434l3.4-35c0.4-4 2.2-7.6 5.4-10 2.6-2.2 6-3.4 9.4-3.4h1.4l13.8 1.4c4 0.4 7.6 2.2 10 5.4 2.6 3 3.8 7 3.4 10.8l-3.4 35c-0.8 7.4-6.8 13.2-14.2 13.4-6.6-2-13.2-2.8-20-2.4-5.8-2.2-9.8-8.4-9.2-15.2zM49.2 933.6h-11L73.2 662l70-1-94 272.6z m255.8-372.8l-76.6 9.4c-1 0.2-2.2 0-3-0.6l-52.2-29c-0.2 0-0.4-0.2-0.4-0.2l-35.4-19.6c-7.2-4-16.4-1.4-20.4 5.8-4 7.2-1.4 16.4 5.8 20.4l27.8 15.4-1 68.6-74.4 1 0.8-104c0-12 4.6-23.6 12.4-32.6l7-7.8c3.4-4 8-6.6 12.8-7.6 0.8 0.2 1.8 0.2 2.6 0.4l12.6 1.2c1 0.4 2 1 3.2 1.6l91.6 58.6s0.2 0 0.2 0.2c6.6 4 14.4 5.8 22.2 5l97.6-10.4c-6.2 12.8-18.4 22.2-33.2 24.2z m137-123.2c-11.6 6.6-23.8 11.8-36.6 15.2-6.2 1.6-10.8 7.2-11.2 13.6l-2.2 37.4h-47.8l-2.8-36.8c-0.4-6.4-5-11.8-11.4-13.4-13.6-3.4-26.6-8.8-39-15.8-5.6-3.2-12.6-2.6-17.4 1.8l-28 24.8-33.8-33.8 24.2-28c4.2-5 4.8-12 1.4-17.6-7.2-12-12.8-25-16.4-38.6-1.6-6.2-7.2-10.8-13.6-11.2L170 333v-47.8l36.8-2.8c6.4-0.4 11.8-5 13.4-11.4 3.4-13.6 8.6-26.6 15.8-39 3.2-5.6 2.6-12.6-1.8-17.4l-24.8-28 33.8-33.8 28 24.2c5 4.2 12 4.8 17.6 1.4 12.8-7.6 26.6-13.4 41-17 6.2-1.6 10.8-7 11.4-13.4l2.8-36.8h47.8l2.2 37.4c0.4 6.4 4.8 12 11.2 13.6 13.6 3.6 26.6 9.2 38.6 16.4 5.6 3.4 12.6 2.8 17.6-1.4l28-24.2 33.8 33.8-24.8 28c-4.2 4.8-5 11.8-1.8 17.4 7 12.2 12.4 25.4 15.8 39 1.6 6.2 7 10.8 13.4 11.4l37 2.8v47.8l-37.4 2.2c-6.4 0.4-12 4.8-13.6 11.2-3.6 13.6-9.2 26.6-16.4 38.6-3.4 5.6-2.8 12.6 1.4 17.6l24.2 28-33.8 33.8-28-24.8c-4.4-4.6-11.6-5.4-17.2-2.2z m287.2 54.2c-6.2 0.4-11.6 4.6-13.4 10.6-1.8 5.8-4.2 11.6-7.2 17s-2.4 12.2 1.8 17l21.6 25.2-17.4 17.4-25-22.2c-4.8-4.2-11.6-5-17-2-5 2.6-10.2 4.8-15.6 6.4-6 1.8-10.2 7.2-10.6 13.4l-2 33.4h-24.6l-2.6-33.2c-0.4-6.2-4.8-11.6-10.8-13.2-6-1.8-11.6-4-17-6.8-5.6-3-12.4-2.2-17 2l-25 22.2-17.4-17.4 21.6-25.2c4-4.8 4.8-11.6 1.8-17s-5.4-11-7.2-16.8c-1.8-6-7.2-10.2-13.4-10.6l-28.8-1.8c1-0.8 2-1.6 2.8-2.4 0 0 45.8-52.4 46-52.8 3-5.6 2-12.2-2-17l-11-12.4-0.2-0.2-0.2-0.2-0.2-0.2-10.4-12.2 17.2-17.2 25.2 21.6c4.8 4 11.6 4.8 17 1.8 5.6-3.2 11.8-5.6 18.2-7.6 6-1.8 10.4-7 10.8-13.2l2.6-33.2h24.6l2 33.4c0.4 6.2 4.6 11.6 10.6 13.4 5.8 1.8 11.6 4.2 17 7.2s12.2 2.4 17-1.8l25.2-21.6 17.2 17.2c-1.6 1.4-2.8 3-3.8 4.8l-18.2 20.6c-4.2 4.8-5 11.4-2 17 2.8 5.4 5.2 11 6.8 17 1.8 6 7 10.2 13.2 10.8l5.6 0.4c5.2 10.2 12.6 19.4 21.6 27l-27.4 1.4z m249.4 443.8h-4.8l-89.2-103.8c-3.2-3.8-4.8-8.6-4.6-13.6l5.6-129.8 63.6 26-23.8 96.2c-2.6 10.4-1.2 21.4 3.8 30.8l49.4 94.2z m-142-129.6c-8.6 7.8-13.8 18.6-14.8 30.2l-7.8 99.4h-7l-13.4-128.2c-0.4-4 0.6-8 3-11.2l57.6-80.2-3.4 76.4-14.2 13.6zM1009 985h-60.8c-8.2 0-15 6.8-15 15s6.8 15 15 15h60.8c8.2 0 15-6.8 15-15s-6.8-15-15-15zM830.2 985h-60.8c-8.2 0-15 6.8-15 15s6.8 15 15 15h60.8c8.2 0 15-6.8 15-15s-6.8-15-15-15z" p-id="6416"></path><path d="M656.2 274.6c54 0 103.8 24.4 136.6 65.6l-11.2-2.8c-8-2-16.2 3-18.2 11s3 16.2 11 18.2l46.6 11.2c7.6 2.4 17-1.2 19.4-10.8l10.8-44.2c2-8-3-16.2-11-18.2s-16.2 3-18.2 11l-2.4 9.8c-38.4-50.8-98.2-81.2-163.4-81.2-8.2 0-15 6.8-15 15s6.8 15.4 15 15.4zM76 196.2c1.2 8.8 12.2 15 20.4 12l49.4-18c7.8-2.8 11.8-11.4 9-19.2-2.8-7.8-11.4-11.8-19.2-9l-14.6 5.4C166.8 89 250.6 40 343.2 40c8.2 0 15-6.8 15-15S351.6 10 343.2 10c-104.8 0-199.4 56-250 145.4l-5.8-16c-2.8-7.8-11.4-11.8-19.2-9-7.8 2.8-11.8 11.4-9 19.2L76 196.2z" p-id="6417"></path><path d="M73.2 662l70-1-94 272.6h-11z" fill="#DC3333" p-id="6418"></path></svg>